<svg width="49" height="49" viewBox="0 0 49 49" fill="none" xmlns="http://www.w3.org/2000/svg">
<g clip-path="url(#clip0_98_124)">
<path d="M24.5 0.97998C11.5316 0.97998 0.97998 11.5316 0.97998 24.5C0.97998 37.4683 11.5316 48.02 24.5 48.02C37.4683 48.02 48.02 37.4683 48.02 24.5C48.02 11.5316 37.4683 0.97998 24.5 0.97998ZM24.5 46.06C12.6116 46.06 2.93998 36.3884 2.93998 24.5C2.93998 12.6116 12.6116 2.93998 24.5 2.93998C36.3884 2.93998 46.06 12.6116 46.06 24.5C46.06 36.3884 36.3884 46.06 24.5 46.06Z" fill="white"/>
<path d="M10.0872 29.687L11.4729 31.0728L24.5 18.0456L37.5272 31.0728L38.9129 29.687L24.5 15.2742L10.0872 29.687Z" fill="white"/>
</g>
<defs>
<clipPath id="clip0_98_124">
<rect width="49" height="49" fill="white"/>
</clipPath>
</defs>
</svg>
