<svg width="257" height="60" viewBox="0 0 257 60" fill="none" xmlns="http://www.w3.org/2000/svg">
<path d="M24.6762 28.1064H15.8296V44.2648H24.6762V28.1064Z" fill="white"/>
<path d="M63.7038 6.14545L57.7164 0L0 59.2404H12.1792L63.7038 6.14545Z" fill="white"/>
<path d="M75.7821 18.206L69.7947 12.0605L23.8276 59.2413H35.4211L75.7821 18.206Z" fill="white"/>
<path d="M104.892 59.2418H116.226L70.2592 12.061L64.2714 18.2065L104.892 59.2418Z" fill="white"/>
<path d="M73.6872 39.0945L69.9306 35.2393L66.1746 39.0945L69.9306 42.9497L73.6872 39.0945Z" fill="white"/>
<path d="M73.8203 49.0442L70.0638 45.189L66.3077 49.0442L70.0638 52.8999L73.8203 49.0442Z" fill="white"/>
<path d="M78.599 44.1414L74.843 40.2861L71.0864 44.1414L74.843 47.9971L78.599 44.1414Z" fill="white"/>
<path d="M68.9007 43.9973L65.1446 40.1421L61.3881 43.9973L65.1446 47.8526L68.9007 43.9973Z" fill="white"/>
<path d="M132.757 27.2164V32.5377H139.019V34.9635H132.757V40.5195H139.802V42.9454H129.783V24.7905H139.802V27.2164H132.757ZM146.44 40.5456H152.572V42.9454H143.466V24.8166H146.44V40.5456ZM164.766 33.6332C165.739 33.8074 166.566 34.3203 167.244 35.1722C167.923 36.0246 168.262 36.9898 168.262 38.0676C168.262 38.9894 168.018 39.8241 167.531 40.5717C167.062 41.3021 166.374 41.8848 165.47 42.3194C164.565 42.7367 163.513 42.9454 162.313 42.9454H155.06V24.8166H161.974C163.209 24.8166 164.27 25.0253 165.157 25.4426C166.044 25.86 166.714 26.4255 167.166 27.1381C167.618 27.8341 167.844 28.6166 167.844 29.4858C167.844 30.5291 167.566 31.3988 167.01 32.0942C166.453 32.7902 165.705 33.303 164.766 33.6332ZM158.034 32.4333H161.713C162.687 32.4333 163.443 32.2163 163.983 31.7812C164.539 31.3294 164.818 30.6856 164.818 29.8509C164.818 29.034 164.539 28.3991 163.983 27.9468C163.443 27.4772 162.687 27.2425 161.713 27.2425H158.034V32.4333ZM162.052 40.5195C163.061 40.5195 163.852 40.2764 164.426 39.7892C165 39.3024 165.287 38.6242 165.287 37.7546C165.287 36.8677 164.983 36.1634 164.374 35.6417C163.765 35.12 162.956 34.8592 161.948 34.8592H158.034V40.5195H162.052ZM182.427 39.2414H174.834L173.529 42.9454H170.424L176.921 24.7905H180.365L186.862 42.9454H183.731L182.427 39.2414ZM181.592 36.8155L178.643 28.3902L175.669 36.8155H181.592ZM203.124 24.8166L197.123 36.3721V42.9454H194.149V36.3721L188.121 24.8166H191.435L195.636 33.7115L199.837 24.8166H203.124ZM217.2 24.8166V27.2425H212.373V42.9454H209.398V27.2425H204.545V24.8166H217.2ZM232.912 24.8166C234.843 24.8166 236.531 25.1907 237.974 25.9382C239.435 26.6686 240.557 27.7297 241.34 29.1206C242.141 30.4947 242.54 32.1031 242.54 33.9462C242.54 35.7899 242.141 37.3894 241.34 38.7458C240.557 40.1022 239.435 41.1456 237.974 41.8759C236.531 42.5891 234.843 42.9454 232.912 42.9454H226.99V24.8166H232.912ZM232.912 40.5195C235.035 40.5195 236.661 39.9457 237.792 38.798C238.922 37.6502 239.488 36.033 239.488 33.9462C239.488 31.8422 238.922 30.1989 237.792 29.0162C236.661 27.8341 235.035 27.2425 232.912 27.2425H229.964V40.5195H232.912ZM248.359 40.363H256.786V42.9454H244.836V40.6239L253.238 27.399H244.836V24.8166H256.786V27.1381L248.359 40.363Z" fill="white"/>
<path d="M134.326 55.9899H131.122L130.572 57.5529H129.261L132.003 49.8919H133.457L136.198 57.5529H134.877L134.326 55.9899ZM133.974 54.9664L132.73 51.4111L131.475 54.9664H133.974ZM138.645 56.5403H141.233V57.5529H137.39V49.9028H138.645V56.5403ZM147.821 52.1044C147.623 51.7225 147.347 51.4366 146.995 51.2457C146.643 51.0474 146.235 50.9483 145.773 50.9483C145.266 50.9483 144.815 51.062 144.419 51.29C144.022 51.5175 143.71 51.8404 143.483 52.2583C143.263 52.6767 143.152 53.1613 143.152 53.7117C143.152 54.2621 143.263 54.7499 143.483 55.1756C143.71 55.594 144.022 55.9169 144.419 56.1444C144.815 56.3718 145.266 56.4856 145.773 56.4856C146.456 56.4856 147.01 56.2946 147.436 55.9132C147.861 55.5314 148.122 55.0139 148.217 54.3607H145.344V53.359H149.561V54.3388C149.48 54.9335 149.267 55.4802 148.922 55.979C148.585 56.4782 148.14 56.8779 147.59 57.1789C147.047 57.4726 146.441 57.6192 145.773 57.6192C145.053 57.6192 144.397 57.4543 143.802 57.1241C143.208 56.786 142.734 56.3202 142.382 55.726C142.037 55.1312 141.864 54.4598 141.864 53.7117C141.864 52.9631 142.037 52.2917 142.382 51.6969C142.734 51.1027 143.208 50.6405 143.802 50.3103C144.404 49.9727 145.061 49.8037 145.773 49.8037C146.588 49.8037 147.311 50.0056 147.942 50.4094C148.581 50.8054 149.043 51.3704 149.329 52.1044H147.821ZM152.054 50.9154V53.1613H154.696V54.1849H152.054V56.5294H155.027V57.5529H150.799V49.8919H155.027V50.9154H152.054ZM160.548 57.5529L158.786 54.4932H157.828V57.5529H156.573V49.9028H159.216C159.803 49.9028 160.298 50.0056 160.702 50.2112C161.113 50.4167 161.418 50.6916 161.616 51.0365C161.822 51.3813 161.924 51.7668 161.924 52.1925C161.924 52.6913 161.777 53.1462 161.484 53.5573C161.197 53.9611 160.753 54.236 160.151 54.3831L162.045 57.5529H160.548ZM157.828 53.4916H159.216C159.685 53.4916 160.037 53.3737 160.273 53.1389C160.515 52.9041 160.636 52.5885 160.636 52.1925C160.636 51.7961 160.519 51.4877 160.284 51.2676C160.049 51.0401 159.692 50.9264 159.216 50.9264H157.828V53.4916ZM164.785 49.9028V57.5529H163.53V49.9028H164.785ZM171.047 55.9899H167.843L167.292 57.5529H165.982L168.723 49.8919H170.177L172.918 57.5529H171.597L171.047 55.9899ZM170.694 54.9664L169.45 51.4111L168.195 54.9664H170.694ZM180.398 57.5529H179.142L175.366 51.8404V57.5529H174.11V49.8919H175.366L179.142 55.594V49.8919H180.398V57.5529ZM188.881 57.5529L187.119 54.4932H186.161V57.5529H184.906V49.9028H187.549C188.136 49.9028 188.631 50.0056 189.035 50.2112C189.446 50.4167 189.751 50.6916 189.949 51.0365C190.155 51.3813 190.257 51.7668 190.257 52.1925C190.257 52.6913 190.111 53.1462 189.817 53.5573C189.53 53.9611 189.086 54.236 188.485 54.3831L190.378 57.5529H188.881ZM186.161 53.4916H187.549C188.019 53.4916 188.371 53.3737 188.606 53.1389C188.848 52.9041 188.969 52.5885 188.969 52.1925C188.969 51.7961 188.852 51.4877 188.617 51.2676C188.382 51.0401 188.026 50.9264 187.549 50.9264H186.161V53.4916ZM193.119 50.9154V53.1613H195.761V54.1849H193.119V56.5294H196.091V57.5529H191.863V49.8919H196.091V50.9154H193.119ZM202.251 55.9899H199.047L198.496 57.5529H197.186L199.927 49.8919H201.381L204.122 57.5529H202.801L202.251 55.9899ZM201.898 54.9664L200.654 51.4111L199.399 54.9664H201.898ZM206.57 56.5403H209.157V57.5529H205.315V49.9028H206.57V56.5403ZM214.322 50.9154V53.1613H216.965V54.1849H214.322V56.5294H217.295V57.5529H213.067V49.8919H217.295V50.9154H214.322ZM221.363 57.6301C220.849 57.6301 220.386 57.542 219.976 57.3662C219.565 57.1825 219.242 56.9259 219.007 56.5956C218.772 56.2654 218.655 55.8799 218.655 55.4396H219.998C220.027 55.7698 220.155 56.0416 220.383 56.2544C220.618 56.4673 220.944 56.5737 221.363 56.5737C221.796 56.5737 222.134 56.4709 222.376 56.2654C222.618 56.0525 222.739 55.7807 222.739 55.4505C222.739 55.1938 222.662 54.9846 222.508 54.8234C222.361 54.6617 222.174 54.537 221.946 54.4489C221.726 54.3607 221.418 54.2658 221.022 54.163C220.523 54.0305 220.115 53.8985 219.799 53.7665C219.491 53.6272 219.227 53.4143 219.007 53.1279C218.787 52.8421 218.676 52.4602 218.676 51.9833C218.676 51.543 218.787 51.1575 219.007 50.8273C219.227 50.497 219.535 50.244 219.931 50.0677C220.328 49.8919 220.787 49.8037 221.308 49.8037C222.049 49.8037 222.655 49.991 223.125 50.3651C223.601 50.7318 223.866 51.2384 223.917 51.8842H222.53C222.508 51.6051 222.376 51.3667 222.134 51.1685C221.891 50.9707 221.572 50.8716 221.175 50.8716C220.816 50.8716 220.523 50.9634 220.295 51.1465C220.067 51.3302 219.953 51.5942 219.953 51.939C219.953 52.1743 220.023 52.3684 220.163 52.5228C220.31 52.6694 220.493 52.7868 220.713 52.8749C220.933 52.9631 221.234 53.0586 221.616 53.1613C222.123 53.3006 222.534 53.4399 222.85 53.5792C223.173 53.719 223.444 53.9355 223.664 54.2287C223.892 54.5151 224.005 54.9001 224.005 55.3848C224.005 55.7734 223.899 56.1407 223.686 56.4856C223.48 56.8304 223.176 57.109 222.772 57.3218C222.376 57.5274 221.906 57.6301 221.363 57.6301ZM230.43 49.9028V50.9264H228.394V57.5529H227.138V50.9264H225.09V49.9028H230.43ZM236.315 55.9899H233.111L232.56 57.5529H231.25L233.992 49.8919H235.445L238.187 57.5529H236.865L236.315 55.9899ZM235.963 54.9664L234.719 51.4111L233.463 54.9664H235.963ZM244.323 49.9028V50.9264H242.286V57.5529H241.031V50.9264H238.983V49.9028H244.323ZM246.849 50.9154V53.1613H249.492V54.1849H246.849V56.5294H249.822V57.5529H245.594V49.8919H249.822V50.9154H246.849ZM253.89 57.6301C253.376 57.6301 252.913 57.542 252.502 57.3662C252.091 57.1825 251.768 56.9259 251.533 56.5956C251.298 56.2654 251.181 55.8799 251.181 55.4396H252.524C252.554 55.7698 252.682 56.0416 252.91 56.2544C253.145 56.4673 253.471 56.5737 253.89 56.5737C254.323 56.5737 254.661 56.4709 254.903 56.2654C255.145 56.0525 255.266 55.7807 255.266 55.4505C255.266 55.1938 255.189 54.9846 255.035 54.8234C254.888 54.6617 254.701 54.537 254.473 54.4489C254.253 54.3607 253.945 54.2658 253.549 54.163C253.049 54.0305 252.642 53.8985 252.326 53.7665C252.018 53.6272 251.753 53.4143 251.533 53.1279C251.313 52.8421 251.203 52.4602 251.203 51.9833C251.203 51.543 251.313 51.1575 251.533 50.8273C251.753 50.497 252.062 50.244 252.458 50.0677C252.854 49.8919 253.313 49.8037 253.834 49.8037C254.576 49.8037 255.181 49.991 255.651 50.3651C256.128 50.7318 256.393 51.2384 256.444 51.8842H255.057C255.035 51.6051 254.903 51.3667 254.661 51.1685C254.418 50.9707 254.099 50.8716 253.702 50.8716C253.343 50.8716 253.049 50.9634 252.822 51.1465C252.594 51.3302 252.48 51.5942 252.48 51.939C252.48 52.1743 252.55 52.3684 252.69 52.5228C252.836 52.6694 253.02 52.7868 253.24 52.8749C253.46 52.9631 253.761 53.0586 254.143 53.1613C254.65 53.3006 255.06 53.4399 255.376 53.5792C255.699 53.719 255.971 53.9355 256.191 54.2287C256.419 54.5151 256.532 54.9001 256.532 55.3848C256.532 55.7734 256.426 56.1407 256.213 56.4856C256.007 56.8304 255.703 57.109 255.299 57.3218C254.903 57.5274 254.433 57.6301 253.89 57.6301Z" fill="white"/>
</svg>
