<svg width="177" height="148" viewBox="0 0 177 148" fill="none" xmlns="http://www.w3.org/2000/svg">
<path d="M96.8442 9.09304L87.7512 0L0.0968018 87.6544H18.5934L96.8442 9.09304Z" fill="white"/>
<path d="M115.188 26.9385L106.095 17.8455L36.2841 87.656H52.5307L115.188 26.9385Z" fill="white"/>
<path d="M159.397 87.6565H176.611L106.8 17.8459L97.7063 26.939L159.397 87.6565Z" fill="white"/>
<path d="M112.006 57.846L106.301 52.1416L100.597 57.846L106.301 63.5503L112.006 57.846Z" fill="#FFC100"/>
<path d="M112.208 72.5681L106.503 66.8638L100.799 72.5681L106.503 78.2732L112.208 72.5681Z" fill="#FFC100"/>
<path d="M119.466 65.3135L113.762 59.6091L108.057 65.3135L113.762 71.0186L119.466 65.3135Z" fill="#FFC100"/>
<path d="M104.737 65.1004L99.0328 59.396L93.3278 65.1004L99.0328 70.8047L104.737 65.1004Z" fill="#FFC100"/>
<path d="M4.1158 105.905V113.27H12.7807V116.628H4.1158V124.318H13.8638V127.675H0V102.547H13.8638V105.905H4.1158ZM23.0492 124.354H31.5336V127.675H18.9334V102.583H23.0492V124.354ZM48.4062 114.786C49.7536 115.027 50.8973 115.737 51.836 116.916C52.7747 118.096 53.2441 119.432 53.2441 120.924C53.2441 122.2 52.9069 123.355 52.2332 124.39C51.5833 125.401 50.6323 126.207 49.381 126.809C48.1289 127.386 46.6732 127.675 45.0125 127.675H34.9757V102.583H44.5431C46.2515 102.583 47.7202 102.872 48.9477 103.45C50.1753 104.027 51.1017 104.81 51.7277 105.796C52.353 106.76 52.6657 107.843 52.6657 109.046C52.6657 110.49 52.2808 111.694 51.5111 112.656C50.7407 113.619 49.7059 114.329 48.4062 114.786ZM39.0915 113.125H44.1821C45.5295 113.125 46.5765 112.825 47.3231 112.223C48.0928 111.598 48.4784 110.707 48.4784 109.551C48.4784 108.42 48.0928 107.542 47.3231 106.916C46.5765 106.266 45.5295 105.941 44.1821 105.941H39.0915V113.125ZM44.6514 124.318C46.0472 124.318 47.1426 123.981 47.9368 123.307C48.7311 122.633 49.1283 121.694 49.1283 120.491C49.1283 119.263 48.7066 118.288 47.8646 117.566C47.022 116.844 45.9028 116.483 44.507 116.483H39.0915V124.318H44.6514ZM72.844 122.548H62.3378L60.5327 127.675H56.2363L65.2261 102.547H69.9918L78.9816 127.675H74.6491L72.844 122.548ZM71.6887 119.191L67.609 107.529L63.4932 119.191H71.6887ZM101.483 102.583L93.1796 118.577V127.675H89.0639V118.577L80.7239 102.583H85.3091L91.1218 114.895L96.9344 102.583H101.483ZM120.96 102.583V105.941H114.281V127.675H110.165V105.941H103.45V102.583H120.96ZM142.702 102.583C145.374 102.583 147.709 103.101 149.706 104.136C151.728 105.147 153.281 106.615 154.364 108.54C155.471 110.442 156.024 112.668 156.024 115.219C156.024 117.771 155.471 119.985 154.364 121.863C153.281 123.74 151.728 125.184 149.706 126.195C147.709 127.182 145.374 127.675 142.702 127.675H134.507V102.583H142.702ZM142.702 124.318C145.639 124.318 147.89 123.523 149.454 121.935C151.018 120.346 151.8 118.108 151.8 115.219C151.8 112.307 151.018 110.033 149.454 108.396C147.89 106.76 145.639 105.941 142.702 105.941H138.622V124.318H142.702ZM164.075 124.101H175.737V127.675H159.201V124.462L170.827 106.157H159.201V102.583H175.737V105.796L164.075 124.101Z" fill="white"/>
<path d="M7.70673 145.73H3.27321L2.51142 147.893H0.698303L4.49206 137.29H6.50375L10.2968 147.893H8.4685L7.70673 145.73ZM7.21933 144.313L5.49791 139.392L3.76133 144.313H7.21933ZM13.6833 146.492H17.2641V147.893H11.9467V137.305H13.6833V146.492ZM26.3802 140.352C26.1058 139.823 25.7246 139.428 25.2372 139.163C24.7498 138.889 24.1858 138.752 23.5461 138.752C22.8449 138.752 22.2204 138.909 21.6723 139.225C21.1235 139.539 20.6917 139.986 20.3769 140.565C20.0722 141.144 19.9198 141.815 19.9198 142.577C19.9198 143.338 20.0722 144.013 20.3769 144.603C20.6917 145.182 21.1235 145.629 21.6723 145.944C22.2204 146.258 22.8449 146.416 23.5461 146.416C24.4905 146.416 25.2574 146.151 25.8466 145.624C26.4358 145.095 26.7961 144.379 26.9283 143.475H22.9518V142.088H28.7869V143.444C28.6757 144.268 28.3811 145.024 27.9038 145.715C27.4366 146.406 26.8214 146.959 26.0596 147.375C25.3086 147.782 24.4703 147.985 23.5461 147.985C22.5503 147.985 21.6412 147.757 20.8188 147.3C19.9964 146.832 19.3407 146.187 18.8533 145.364C18.376 144.541 18.137 143.612 18.137 142.577C18.137 141.54 18.376 140.611 18.8533 139.788C19.3407 138.965 19.9964 138.326 20.8188 137.869C21.6521 137.401 22.5612 137.167 23.5461 137.167C24.6732 137.167 25.674 137.447 26.5477 138.006C27.4308 138.554 28.0713 139.336 28.467 140.352H26.3802ZM32.2369 138.706V141.815H35.8935V143.231H32.2369V146.476H36.3506V147.893H30.5003V137.29H36.3506V138.706H32.2369ZM43.9901 147.893L41.5524 143.658H40.2266V147.893H38.49V137.305H42.1466C42.959 137.305 43.6449 137.447 44.2031 137.731C44.7721 138.016 45.1938 138.396 45.4681 138.874C45.7526 139.351 45.8949 139.885 45.8949 140.474C45.8949 141.164 45.6913 141.794 45.2855 142.363C44.889 142.922 44.2746 143.302 43.4413 143.506L46.0624 147.893H43.9901ZM40.2266 142.272H42.1466C42.7965 142.272 43.2839 142.109 43.6095 141.784C43.9446 141.459 44.1121 141.022 44.1121 140.474C44.1121 139.925 43.9496 139.498 43.6247 139.194C43.2998 138.879 42.8066 138.721 42.1466 138.721H40.2266V142.272ZM49.8533 137.305V147.893H48.1167V137.305H49.8533ZM58.5174 145.73H54.0839L53.3221 147.893H51.509L55.3028 137.29H57.3137L61.1075 147.893H59.2792L58.5174 145.73ZM58.03 144.313L56.3086 139.392L54.5713 144.313H58.03ZM71.4569 147.893H69.7196L64.494 139.986V147.893H62.7567V137.29H64.494L69.7196 145.182V137.29H71.4569V147.893ZM83.1949 147.893L80.7572 143.658H79.4322V147.893H77.6949V137.305H81.3515C82.1645 137.305 82.8498 137.447 83.4086 137.731C83.9776 138.016 84.3986 138.396 84.673 138.874C84.9575 139.351 85.0997 139.885 85.0997 140.474C85.0997 141.164 84.8968 141.794 84.4903 142.363C84.0939 142.922 83.4794 143.302 82.6469 143.506L85.2673 147.893H83.1949ZM79.4322 142.272H81.3515C82.0021 142.272 82.4894 142.109 82.8144 141.784C83.1494 141.459 83.3169 141.022 83.3169 140.474C83.3169 139.925 83.1545 139.498 82.8295 139.194C82.5046 138.879 82.0122 138.721 81.3515 138.721H79.4322V142.272ZM89.0588 138.706V141.815H92.7154V143.231H89.0588V146.476H93.1725V147.893H87.3216V137.29H93.1725V138.706H89.0588ZM101.695 145.73H97.2616L96.4998 147.893H94.6867L98.4804 137.29H100.491L104.285 147.893H102.457L101.695 145.73ZM101.208 144.313L99.4863 139.392L97.749 144.313H101.208ZM107.672 146.492H111.252V147.893H105.935V137.305H107.672V146.492ZM118.399 138.706V141.815H122.055V143.231H118.399V146.476H122.512V147.893H116.662V137.29H122.512V138.706H118.399ZM128.141 148C127.43 148 126.79 147.878 126.222 147.635C125.653 147.38 125.206 147.025 124.881 146.568C124.556 146.111 124.393 145.577 124.393 144.968H126.252C126.292 145.425 126.47 145.801 126.785 146.096C127.11 146.391 127.562 146.538 128.141 146.538C128.74 146.538 129.207 146.396 129.542 146.111C129.878 145.816 130.046 145.44 130.046 144.983C130.046 144.628 129.939 144.338 129.726 144.115C129.522 143.891 129.264 143.719 128.948 143.597C128.643 143.475 128.217 143.343 127.669 143.201C126.978 143.018 126.414 142.835 125.978 142.652C125.551 142.46 125.186 142.165 124.881 141.769C124.576 141.373 124.424 140.844 124.424 140.184C124.424 139.575 124.576 139.041 124.881 138.584C125.186 138.127 125.612 137.777 126.16 137.533C126.709 137.29 127.344 137.167 128.065 137.167C129.09 137.167 129.929 137.427 130.579 137.944C131.239 138.452 131.605 139.153 131.675 140.047H129.756C129.726 139.661 129.542 139.331 129.207 139.056C128.872 138.783 128.43 138.646 127.882 138.646C127.384 138.646 126.978 138.773 126.663 139.026C126.348 139.28 126.191 139.646 126.191 140.123C126.191 140.449 126.287 140.717 126.48 140.931C126.684 141.134 126.937 141.296 127.242 141.418C127.547 141.54 127.963 141.672 128.491 141.815C129.192 142.008 129.761 142.2 130.198 142.393C130.645 142.587 131.021 142.886 131.325 143.292C131.64 143.689 131.798 144.221 131.798 144.892C131.798 145.43 131.65 145.938 131.356 146.416C131.071 146.893 130.65 147.279 130.091 147.573C129.542 147.858 128.893 148 128.141 148ZM140.688 137.305V138.721H137.869V147.893H136.132V138.721H133.299V137.305H140.688ZM148.83 145.73H144.397L143.635 147.893H141.822L145.616 137.29H147.627L151.421 147.893H149.592L148.83 145.73ZM148.343 144.313L146.622 139.392L144.884 144.313H148.343ZM159.911 137.305V138.721H157.092V147.893H155.356V138.721H152.522V137.305H159.911ZM163.407 138.706V141.815H167.063V143.231H163.407V146.476H167.521V147.893H161.67V137.29H167.521V138.706H163.407ZM173.149 148C172.438 148 171.798 147.878 171.229 147.635C170.66 147.38 170.213 147.025 169.888 146.568C169.563 146.111 169.401 145.577 169.401 144.968H171.259C171.301 145.425 171.478 145.801 171.793 146.096C172.118 146.391 172.57 146.538 173.149 146.538C173.748 146.538 174.216 146.396 174.551 146.111C174.886 145.816 175.053 145.44 175.053 144.983C175.053 144.628 174.946 144.338 174.733 144.115C174.53 143.891 174.271 143.719 173.956 143.597C173.652 143.475 173.225 143.343 172.677 143.201C171.986 143.018 171.422 142.835 170.985 142.652C170.559 142.46 170.193 142.165 169.888 141.769C169.583 141.373 169.431 140.844 169.431 140.184C169.431 139.575 169.583 139.041 169.888 138.584C170.193 138.127 170.62 137.777 171.168 137.533C171.716 137.29 172.351 137.167 173.073 137.167C174.099 137.167 174.936 137.427 175.587 137.944C176.247 138.452 176.612 139.153 176.684 140.047H174.764C174.733 139.661 174.551 139.331 174.216 139.056C173.88 138.783 173.439 138.646 172.89 138.646C172.392 138.646 171.986 138.773 171.671 139.026C171.356 139.28 171.199 139.646 171.199 140.123C171.199 140.449 171.296 140.717 171.488 140.931C171.691 141.134 171.945 141.296 172.25 141.418C172.555 141.54 172.971 141.672 173.499 141.815C174.2 142.008 174.769 142.2 175.206 142.393C175.652 142.587 176.029 142.886 176.333 143.292C176.648 143.689 176.806 144.221 176.806 144.892C176.806 145.43 176.658 145.938 176.364 146.416C176.079 146.893 175.658 147.279 175.099 147.573C174.551 147.858 173.901 148 173.149 148Z" fill="#FFC100"/>
</svg>
