<svg width="430" height="95" viewBox="0 0 430 95" fill="none" xmlns="http://www.w3.org/2000/svg">
<path d="M104.852 9.85482L94.9977 0L0 94.9977H20.0461L104.852 9.85482Z" fill="#003554"/>
<path d="M124.733 29.195L114.878 19.3402L39.2188 94.9992H56.8264L124.733 29.195Z" fill="#003554"/>
<path d="M172.646 95H191.301L115.642 19.3411L105.787 29.1959L172.646 95Z" fill="#003554"/>
<path d="M121.284 62.6919L115.101 56.5097L108.919 62.6919L115.101 68.8742L121.284 62.6919Z" fill="#FFC100"/>
<path d="M121.504 78.6476L115.321 72.4653L109.139 78.6476L115.321 84.8306L121.504 78.6476Z" fill="#FFC100"/>
<path d="M129.369 70.7852L123.187 64.6029L117.004 70.7852L123.187 76.9682L129.369 70.7852Z" fill="#FFC100"/>
<path d="M113.407 70.5544L107.224 64.3721L101.041 70.5544L107.224 76.7366L113.407 70.5544Z" fill="#FFC100"/>
<path d="M217.524 41.0429V49.9395H228.16V53.9953H217.524V63.2843H229.49V67.3401H212.471V36.9871H229.49V41.0429H217.524ZM240.765 63.3279H251.18V67.3401H235.713V37.0307H240.765V63.3279ZM271.892 51.7711C273.546 52.0624 274.95 52.9198 276.102 54.3441C277.254 55.7693 277.831 57.3829 277.831 59.1849C277.831 60.7261 277.417 62.1217 276.59 63.3716C275.792 64.5927 274.625 65.5669 273.088 66.2935C271.551 66.9913 269.765 67.3401 267.726 67.3401H255.405V37.0307H267.15C269.247 37.0307 271.05 37.3796 272.557 38.0773C274.063 38.7751 275.201 39.7206 275.969 40.912C276.737 42.0756 277.121 43.3839 277.121 44.837C277.121 46.5814 276.648 48.0354 275.703 49.1981C274.757 50.3616 273.487 51.219 271.892 51.7711ZM260.458 49.765H266.707C268.361 49.765 269.646 49.4022 270.562 48.6747C271.507 47.9194 271.98 46.8431 271.98 45.4475C271.98 44.0816 271.507 43.0202 270.562 42.264C269.646 41.479 268.361 41.0865 266.707 41.0865H260.458V49.765ZM267.283 63.2843C268.996 63.2843 270.341 62.8779 271.316 62.0632C272.291 61.2495 272.778 60.1156 272.778 58.6616C272.778 57.1789 272.261 56.0013 271.227 55.1291C270.193 54.2569 268.819 53.8208 267.105 53.8208H260.458V63.2843H267.283ZM301.89 61.1474H288.993L286.778 67.3401H281.504L292.539 36.9871H298.389L309.424 67.3401H304.106L301.89 61.1474ZM300.472 57.0916L295.464 43.0053L290.412 57.0916H300.472ZM337.046 37.0307L326.853 56.3502V67.3401H321.801V56.3502L311.563 37.0307H317.192L324.327 51.9019L331.462 37.0307H337.046ZM360.954 37.0307V41.0865H352.755V67.3401H347.703V41.0865H339.46V37.0307H360.954ZM387.644 37.0307C390.923 37.0307 393.79 37.656 396.242 38.9059C398.723 40.127 400.629 41.9011 401.959 44.2264C403.318 46.5239 403.997 49.2129 403.997 52.2944C403.997 55.3768 403.318 58.0511 401.959 60.3188C400.629 62.5866 398.723 64.331 396.242 65.5521C393.79 66.7444 390.923 67.3401 387.644 67.3401H377.583V37.0307H387.644ZM387.644 63.2843C391.249 63.2843 394.011 62.3249 395.931 60.406C397.852 58.4872 398.812 55.7833 398.812 52.2944C398.812 48.7768 397.852 46.0293 395.931 44.052C394.011 42.0756 391.249 41.0865 387.644 41.0865H382.636V63.2843H387.644ZM413.88 63.0227H428.195V67.3401H407.897V63.4588L422.168 41.3481H407.897V37.0307H428.195V40.912L413.88 63.0227Z" fill="#003554"/>
<path d="M222.14 89.5468H216.71L215.776 92.1446H213.555L218.203 79.4111H220.667L225.313 92.1446H223.074L222.14 89.5468ZM221.543 87.8455L219.435 81.9361L217.307 87.8455H221.543ZM229.461 90.4616H233.848V92.1446H227.334V79.4293H229.461V90.4616ZM245.015 83.0885C244.678 82.4538 244.211 81.9786 243.614 81.6612C243.017 81.3317 242.327 81.167 241.543 81.167C240.684 81.167 239.919 81.356 239.248 81.7349C238.575 82.113 238.046 82.6498 237.661 83.3443C237.288 84.0397 237.101 84.8453 237.101 85.7601C237.101 86.6749 237.288 87.4856 237.661 88.1932C238.046 88.8886 238.575 89.4254 239.248 89.8035C239.919 90.1815 240.684 90.3705 241.543 90.3705C242.7 90.3705 243.639 90.0532 244.361 89.4193C245.083 88.7846 245.524 87.9244 245.686 86.8388H240.815V85.1739H247.963V86.8024C247.826 87.7909 247.466 88.6996 246.881 89.5286C246.309 90.3584 245.555 91.0226 244.622 91.5229C243.702 92.0111 242.675 92.2548 241.543 92.2548C240.323 92.2548 239.21 91.9808 238.202 91.4319C237.195 90.87 236.392 90.0957 235.795 89.108C235.21 88.1195 234.917 87.0035 234.917 85.7601C234.917 84.5158 235.21 83.3998 235.795 82.4113C236.392 81.4236 237.195 80.6554 238.202 80.1065C239.223 79.5455 240.336 79.2645 241.543 79.2645C242.924 79.2645 244.15 79.6001 245.22 80.2713C246.302 80.9294 247.086 81.8685 247.571 83.0885H245.015ZM252.189 81.1124V84.8453H256.668V86.5466H252.189V90.4434H257.228V92.1446H250.062V79.4111H257.228V81.1124H252.189ZM266.586 92.1446L263.6 87.059H261.976V92.1446H259.849V79.4293H264.328C265.323 79.4293 266.163 79.6001 266.847 79.9417C267.544 80.2834 268.06 80.7404 268.396 81.3135C268.745 81.8867 268.919 82.5275 268.919 83.2351C268.919 84.064 268.67 84.8201 268.173 85.5034C267.687 86.1746 266.934 86.6315 265.914 86.8761L269.124 92.1446H266.586ZM261.976 85.3942H264.328C265.124 85.3942 265.721 85.1982 266.12 84.808C266.53 84.4178 266.735 83.8932 266.735 83.2351C266.735 82.576 266.536 82.0636 266.138 81.6976C265.74 81.3196 265.136 81.1306 264.328 81.1306H261.976V85.3942ZM273.768 79.4293V92.1446H271.641V79.4293H273.768ZM284.381 89.5468H278.95L278.017 92.1446H275.796L280.443 79.4111H282.907L287.554 92.1446H285.314L284.381 89.5468ZM283.784 87.8455L281.676 81.9361L279.547 87.8455H283.784ZM300.232 92.1446H298.103L291.702 82.6498V92.1446H289.574V79.4111H291.702L298.103 88.8886V79.4111H300.232V92.1446ZM314.61 92.1446L311.624 87.059H310.001V92.1446H307.873V79.4293H312.352C313.348 79.4293 314.187 79.6001 314.872 79.9417C315.569 80.2834 316.085 80.7404 316.421 81.3135C316.769 81.8867 316.943 82.5275 316.943 83.2351C316.943 84.064 316.695 84.8201 316.197 85.5034C315.711 86.1746 314.959 86.6315 313.939 86.8761L317.149 92.1446H314.61ZM310.001 85.3942H312.352C313.149 85.3942 313.746 85.1982 314.144 84.808C314.554 84.4178 314.76 83.8932 314.76 83.2351C314.76 82.576 314.561 82.0636 314.163 81.6976C313.765 81.3196 313.161 81.1306 312.352 81.1306H310.001V85.3942ZM321.793 81.1124V84.8453H326.272V86.5466H321.793V90.4434H326.832V92.1446H319.665V79.4111H326.832V81.1124H321.793ZM337.272 89.5468H331.841L330.908 92.1446H328.687L333.334 79.4111H335.798L340.445 92.1446H338.205L337.272 89.5468ZM336.675 87.8455L334.566 81.9361L332.438 87.8455H336.675ZM344.593 90.4616H348.978V92.1446H342.466V79.4293H344.593V90.4616ZM357.733 81.1124V84.8453H362.212V86.5466H357.733V90.4434H362.772V92.1446H355.606V79.4111H362.772V81.1124H357.733ZM369.667 92.273C368.796 92.273 368.012 92.1264 367.316 91.8342C366.619 91.529 366.071 91.1024 365.673 90.5535C365.275 90.0046 365.076 89.3638 365.076 88.632H367.353C367.403 89.1809 367.62 89.6326 368.006 89.9864C368.404 90.3402 368.958 90.5171 369.667 90.5171C370.401 90.5171 370.973 90.3463 371.384 90.0046C371.795 89.6508 372 89.1991 372 88.6502C372 88.2236 371.869 87.8758 371.608 87.6079C371.359 87.3391 371.042 87.1319 370.656 86.9853C370.283 86.8388 369.761 86.681 369.089 86.5101C368.243 86.2899 367.552 86.0705 367.017 85.8511C366.494 85.6196 366.047 85.2658 365.673 84.7898C365.3 84.3146 365.114 83.6799 365.114 82.8873C365.114 82.1555 365.3 81.5147 365.673 80.9658C366.047 80.4169 366.569 79.9964 367.241 79.7033C367.913 79.4111 368.69 79.2645 369.574 79.2645C370.83 79.2645 371.857 79.5758 372.653 80.1976C373.462 80.8071 373.91 81.6491 373.997 82.7226H371.646C371.608 82.2587 371.384 81.8624 370.973 81.5329C370.563 81.2043 370.022 81.0395 369.349 81.0395C368.74 81.0395 368.243 81.1921 367.856 81.4965C367.471 81.8017 367.278 82.2405 367.278 82.8136C367.278 83.2047 367.396 83.5273 367.633 83.7839C367.882 84.0276 368.193 84.2227 368.566 84.3692C368.939 84.5158 369.449 84.6745 370.096 84.8453C370.955 85.0768 371.652 85.3083 372.187 85.5398C372.734 85.7722 373.194 86.1321 373.568 86.6194C373.953 87.0955 374.146 87.7354 374.146 88.5409C374.146 89.1869 373.966 89.7974 373.605 90.3705C373.256 90.9437 372.741 91.4067 372.056 91.7605C371.384 92.1022 370.588 92.273 369.667 92.273ZM385.036 79.4293V81.1306H381.584V92.1446H379.456V81.1306H375.985V79.4293H385.036ZM395.011 89.5468H389.58L388.647 92.1446H386.426L391.073 79.4111H393.536L398.183 92.1446H395.944L395.011 89.5468ZM394.414 87.8455L392.305 81.9361L390.177 87.8455H394.414ZM408.584 79.4293V81.1306H405.131V92.1446H403.004V81.1306H399.532V79.4293H408.584ZM412.866 81.1124V84.8453H417.345V86.5466H412.866V90.4434H417.905V92.1446H410.739V79.4111H417.905V81.1124H412.866ZM424.8 92.273C423.929 92.273 423.145 92.1264 422.448 91.8342C421.751 91.529 421.204 91.1024 420.806 90.5535C420.407 90.0046 420.208 89.3638 420.208 88.632H422.485C422.536 89.1809 422.753 89.6326 423.139 89.9864C423.537 90.3402 424.091 90.5171 424.8 90.5171C425.534 90.5171 426.106 90.3463 426.517 90.0046C426.927 89.6508 427.132 89.1991 427.132 88.6502C427.132 88.2236 427.001 87.8758 426.741 87.6079C426.492 87.3391 426.174 87.1319 425.789 86.9853C425.416 86.8388 424.893 86.681 424.221 86.5101C423.375 86.2899 422.684 86.0705 422.149 85.8511C421.627 85.6196 421.179 85.2658 420.806 84.7898C420.432 84.3146 420.246 83.6799 420.246 82.8873C420.246 82.1555 420.432 81.5147 420.806 80.9658C421.179 80.4169 421.702 79.9964 422.374 79.7033C423.045 79.4111 423.823 79.2645 424.706 79.2645C425.963 79.2645 426.989 79.5758 427.786 80.1976C428.594 80.8071 429.042 81.6491 429.13 82.7226H426.778C426.741 82.2587 426.517 81.8624 426.106 81.5329C425.695 81.2043 425.155 81.0395 424.482 81.0395C423.873 81.0395 423.375 81.1921 422.989 81.4965C422.604 81.8017 422.411 82.2405 422.411 82.8136C422.411 83.2047 422.529 83.5273 422.766 83.7839C423.014 84.0276 423.325 84.2227 423.699 84.3692C424.072 84.5158 424.582 84.6745 425.229 84.8453C426.088 85.0768 426.784 85.3083 427.319 85.5398C427.867 85.7722 428.327 86.1321 428.701 86.6194C429.086 87.0955 429.279 87.7354 429.279 88.5409C429.279 89.1869 429.099 89.7974 428.738 90.3705C428.389 90.9437 427.873 91.4067 427.188 91.7605C426.517 92.1022 425.721 92.273 424.8 92.273Z" fill="#FFC100"/>
</svg>
