<svg width="55" height="55" viewBox="0 0 55 55" fill="none" xmlns="http://www.w3.org/2000/svg">
<path d="M27.5002 26.3541C25.9807 26.3541 24.5235 25.7505 23.449 24.6761C22.3746 23.6016 21.771 22.1444 21.771 20.6249C21.771 19.1055 22.3746 17.6482 23.449 16.5738C24.5235 15.4994 25.9807 14.8958 27.5002 14.8958C29.0196 14.8958 30.4769 15.4994 31.5513 16.5738C32.6257 17.6482 33.2293 19.1055 33.2293 20.6249C33.2293 21.3773 33.0811 22.1223 32.7932 22.8174C32.5053 23.5125 32.0833 24.1441 31.5513 24.6761C31.0193 25.2081 30.3877 25.6301 29.6926 25.918C28.9975 26.2059 28.2525 26.3541 27.5002 26.3541ZM27.5002 4.58325C23.2456 4.58325 19.1654 6.27335 16.157 9.28175C13.1486 12.2901 11.4585 16.3704 11.4585 20.6249C11.4585 32.6562 27.5002 50.4166 27.5002 50.4166C27.5002 50.4166 43.5418 32.6562 43.5418 20.6249C43.5418 16.3704 41.8517 12.2901 38.8433 9.28175C35.8349 6.27335 31.7547 4.58325 27.5002 4.58325Z" fill="#D82338"/>
</svg>
